<svg width="121" height="121" viewBox="0 0 121 121" fill="none" xmlns="http://www.w3.org/2000/svg">
<path d="M30.5 71.75C28.4289 71.75 26.75 73.4289 26.75 75.5C26.75 77.5711 28.4289 79.25 30.5 79.25H35.5C37.5711 79.25 39.25 77.5711 39.25 75.5C39.25 73.4289 37.5711 71.75 35.5 71.75H30.5Z" fill="#AE9667"/>
<path d="M46.75 75.5C46.75 73.4289 48.4289 71.75 50.5 71.75H55.5C57.5711 71.75 59.25 73.4289 59.25 75.5C59.25 77.5711 57.5711 79.25 55.5 79.25H50.5C48.4289 79.25 46.75 77.5711 46.75 75.5Z" fill="#AE9667"/>
<path d="M70.5 71.75C68.4289 71.75 66.75 73.4289 66.75 75.5C66.75 77.5711 68.4289 79.25 70.5 79.25H90.5C92.5711 79.25 94.25 77.5711 94.25 75.5C94.25 73.4289 92.5711 71.75 90.5 71.75H70.5Z" fill="#AE9667"/>
<path fill-rule="evenodd" clip-rule="evenodd" d="M90.5 20.5H30.5C19.4543 20.5 10.5 29.4543 10.5 40.5V80.5C10.5 91.5457 19.4543 100.5 30.5 100.5H90.5C101.546 100.5 110.5 91.5457 110.5 80.5V40.5C110.5 29.4543 101.546 20.5 90.5 20.5ZM30.5 28H90.5C97.4036 28 103 33.5964 103 40.5V80.5C103 87.4036 97.4036 93 90.5 93H30.5C23.5964 93 18 87.4036 18 80.5V40.5C18 33.5964 23.5964 28 30.5 28Z" fill="#AE9667"/>
</svg>
