<svg width="121" height="120" viewBox="0 0 121 120" fill="none" xmlns="http://www.w3.org/2000/svg">
    <path d="M80.5 87.5C82.5711 87.5 84.25 85.8211 84.25 83.75C84.25 81.6789 82.5711 80 80.5 80C78.4289 80 76.75 81.6789 76.75 83.75C76.75 85.8211 78.4289 87.5 80.5 87.5Z" fill="#AE9667"/>
    <path fill-rule="evenodd" clip-rule="evenodd" d="M90.5 22.5H30.5C23.5964 22.5 18 28.0964 18 35V75C18 81.9036 23.5964 87.5 30.5 87.5H51.9538C51.0163 85.1839 50.5 82.6523 50.5 80V45C50.5 33.9543 59.4543 25 70.5 25H90.5C101.546 25 110.5 33.9543 110.5 45V80C110.5 91.0457 101.546 100 90.5 100H74.25C74.25 102.071 72.5711 103.75 70.5 103.75H50.5C48.4289 103.75 46.75 102.071 46.75 100C46.75 97.9289 48.4289 96.25 50.5 96.25H58.8382C58.282 95.8501 57.7471 95.4224 57.2357 94.9688C57.0767 94.9894 56.9146 95 56.75 95H30.5C19.4543 95 10.5 86.0457 10.5 75V35C10.5 23.9543 19.4543 15 30.5 15H90.5C94.9449 15 99.051 16.45 102.371 18.9027C105.315 21.0769 103.246 25 99.5872 25C98.5578 25 97.571 24.6394 96.6764 24.1301C94.8546 23.0926 92.7465 22.5 90.5 22.5ZM90.5 32.5H70.5C63.5964 32.5 58 38.0964 58 45V80C58 86.9036 63.5964 92.5 70.5 92.5H90.5C97.4035 92.5 103 86.9036 103 80V45C103 38.0964 97.4035 32.5 90.5 32.5Z" fill="#AE9667"/>
</svg>
