<svg width="121" height="120" viewBox="0 0 121 120" fill="none" xmlns="http://www.w3.org/2000/svg">
<path d="M96.2826 57.0809C94.7961 38.4256 79.1861 23.75 60.1484 23.75C48.7024 23.75 38.497 29.0505 31.8475 37.3455C30.7037 38.7723 29.6659 40.2871 28.7457 41.8777C27.7087 43.6705 25.4147 44.2831 23.622 43.246C21.8293 42.209 21.2167 39.915 22.2537 38.1223C23.3644 36.2022 24.6165 34.3749 25.9957 32.6545C34.0074 22.6602 46.3306 16.25 60.1484 16.25C83.3974 16.25 102.411 34.3844 103.815 57.2799L107.497 53.5984C108.961 52.1339 111.336 52.1339 112.8 53.5984C114.265 55.0628 114.265 57.4372 112.8 58.9016L102.8 68.9016C101.336 70.3661 98.9613 70.3661 97.4968 68.9016L87.4968 58.9016C86.0323 57.4372 86.0323 55.0628 87.4968 53.5984C88.9613 52.1339 91.3356 52.1339 92.8001 53.5984L96.2826 57.0809Z" fill="#AE9667"/>
<path d="M7.84835 61.0984C6.38388 62.5628 6.38388 64.9372 7.84835 66.4016C9.31282 67.8661 11.6872 67.8661 13.1517 66.4016L16.8332 62.7201C18.2376 85.6156 37.2511 103.75 60.5 103.75C74.3179 103.75 86.6411 97.3398 94.6528 87.3455C96.0319 85.6251 97.284 83.7978 98.3947 81.8777C99.4318 80.085 98.8192 77.791 97.0264 76.754C95.2337 75.7169 92.9397 76.3295 91.9027 78.1223C90.9826 79.7129 89.9447 81.2277 88.8009 82.6545C82.1514 90.9495 71.946 96.25 60.5 96.25C41.4623 96.25 25.8524 81.5744 24.3658 62.9191L27.8483 66.4017C29.3128 67.8661 31.6872 67.8661 33.1517 66.4017C34.6161 64.9372 34.6161 62.5628 33.1517 61.0984L23.1517 51.0984C21.6872 49.6339 19.3128 49.6339 17.8484 51.0984L7.84835 61.0984Z" fill="#AE9667"/>
</svg>
