<svg width="121" height="120" viewBox="0 0 121 120" fill="none" xmlns="http://www.w3.org/2000/svg">
<path fill-rule="evenodd" clip-rule="evenodd" d="M30.5 17.5H60.5C61.8807 17.5 63 18.6193 63 20V60C63 61.3807 61.8807 62.5 60.5 62.5H20.5C19.1193 62.5 18 61.3807 18 60V55H10.5V60C10.5 65.5228 14.9772 70 20.5 70H21.75V80C21.75 85.591 24.1971 90.6104 28.0787 94.0457C28.8524 101.604 35.2376 107.5 43 107.5C49.0537 107.5 54.2699 103.914 56.6399 98.75H66.8601C69.2301 103.914 74.4463 107.5 80.5 107.5C86.7041 107.5 92.0284 103.734 94.3111 98.3624C102.839 96.6016 109.25 89.0495 109.25 80V59.3441C109.25 56.6072 108.433 53.9325 106.904 51.6625L90.1113 26.7317C85.6974 20.1789 78.3139 16.25 70.4132 16.25H69.7731C69.8148 16.353 69.8549 16.4569 69.8932 16.5617C68.4912 12.7326 64.8147 10 60.5 10H30.5C23.0972 10 16.6337 14.022 13.1756 20H22.9988C25.0881 18.4302 27.6854 17.5 30.5 17.5ZM29.25 80V70H60.5C66.0228 70 70.5 65.5228 70.5 60V23.7502C75.873 23.7788 80.887 26.4622 83.8908 30.9217L84.4884 31.8089C79.9949 33.284 76.75 37.513 76.75 42.5V51.25C76.75 62.2957 85.7043 71.25 96.75 71.25H101.75V80C101.75 84.4884 99.1215 88.3629 95.3198 90.1681C94.1996 82.9913 87.9911 77.5 80.5 77.5C72.6367 77.5 66.1865 83.5506 65.5513 91.25H57.9487C57.3135 83.5506 50.8633 77.5 43 77.5C37.6083 77.5 32.881 80.3447 30.2372 84.6151C29.6029 83.2069 29.25 81.6447 29.25 80ZM101.75 63.75V59.3441C101.75 58.1001 101.379 56.8843 100.684 55.8525L89.1638 38.75H88C85.9289 38.75 84.25 40.4289 84.25 42.5V51.25C84.25 58.1536 89.8465 63.75 96.75 63.75H101.75ZM43 100C47.1421 100 50.5 96.6421 50.5 92.5C50.5 88.3579 47.1421 85 43 85C38.8579 85 35.5 88.3579 35.5 92.5C35.5 96.6421 38.8579 100 43 100ZM88 92.5C88 96.6421 84.6421 100 80.5 100C76.3579 100 73 96.6421 73 92.5C73 88.3579 76.3579 85 80.5 85C84.6421 85 88 88.3579 88 92.5Z" fill="#AE9667"/>
<path d="M6.75 30C6.75 27.9289 8.42893 26.25 10.5 26.25H30.5C32.5711 26.25 34.25 27.9289 34.25 30C34.25 32.0711 32.5711 33.75 30.5 33.75H10.5C8.42893 33.75 6.75 32.0711 6.75 30Z" fill="#AE9667"/>
<path d="M10.5 41.25C8.42893 41.25 6.75 42.9289 6.75 45C6.75 47.0711 8.42893 48.75 10.5 48.75H45.5C47.5711 48.75 49.25 47.0711 49.25 45C49.25 42.9289 47.5711 41.25 45.5 41.25H10.5Z" fill="#AE9667"/>
</svg>
